solid OpenSCAD_Model
  facet normal -1 0 0
    outer loop
      vertex -7.5 -4.5 0
      vertex -7.5 -4.5 12
      vertex -7.5 4.5 0
    endloop
  endfacet
  facet normal -1 0 0
    outer loop
      vertex -7.5 4.5 0
      vertex -7.5 -4.5 12
      vertex -7.5 4.5 12
    endloop
  endfacet
  facet normal 0 -1 0
    outer loop
      vertex 0.776457 -4.5 3.10222
      vertex -7.5 -4.5 0
      vertex 7.5 -4.5 0
    endloop
  endfacet
  facet normal 0 -1 0
    outer loop
      vertex -7.5 -4.5 12
      vertex -7.5 -4.5 0
      vertex -2.89778 -4.5 5.22354
    endloop
  endfacet
  facet normal 0 -1 0
    outer loop
      vertex 1.5 -4.5 3.40192
      vertex 0.776457 -4.5 3.10222
      vertex 7.5 -4.5 0
    endloop
  endfacet
  facet normal 0 -1 0
    outer loop
      vertex -7.5 -4.5 12
      vertex -2.89778 -4.5 5.22354
      vertex -3 -4.5 6
    endloop
  endfacet
  facet normal 0 -1 0
    outer loop
      vertex -7.5 -4.5 12
      vertex -3 -4.5 6
      vertex -2.89778 -4.5 6.77646
    endloop
  endfacet
  facet normal 0 -1 0
    outer loop
      vertex -0.776457 -4.5 8.89778
      vertex 0 -4.5 9
      vertex 7.5 -4.5 12
    endloop
  endfacet
  facet normal 0 -1 0
    outer loop
      vertex -7.5 -4.5 12
      vertex -2.89778 -4.5 6.77646
      vertex -2.59808 -4.5 7.5
    endloop
  endfacet
  facet normal 0 -1 0
    outer loop
      vertex 2.12132 -4.5 3.87868
      vertex 1.5 -4.5 3.40192
      vertex 7.5 -4.5 0
    endloop
  endfacet
  facet normal 0 -1 0
    outer loop
      vertex -1.5 -4.5 8.59808
      vertex -7.5 -4.5 12
      vertex -2.12132 -4.5 8.12132
    endloop
  endfacet
  facet normal 0 -1 0
    outer loop
      vertex -0.776457 -4.5 8.89778
      vertex -7.5 -4.5 12
      vertex -1.5 -4.5 8.59808
    endloop
  endfacet
  facet normal 0 -1 0
    outer loop
      vertex 0 -4.5 9
      vertex 0.776457 -4.5 8.89778
      vertex 7.5 -4.5 12
    endloop
  endfacet
  facet normal 0 -1 0
    outer loop
      vertex 7.5 -4.5 12
      vertex -7.5 -4.5 12
      vertex -0.776457 -4.5 8.89778
    endloop
  endfacet
  facet normal 0 -1 0
    outer loop
      vertex 2.59808 -4.5 7.5
      vertex 2.89778 -4.5 6.77646
      vertex 7.5 -4.5 0
    endloop
  endfacet
  facet normal 0 -1 0
    outer loop
      vertex 3 -4.5 6
      vertex 2.89778 -4.5 5.22354
      vertex 7.5 -4.5 0
    endloop
  endfacet
  facet normal 0 -1 0
    outer loop
      vertex 7.5 -4.5 12
      vertex 0.776457 -4.5 8.89778
      vertex 1.5 -4.5 8.59808
    endloop
  endfacet
  facet normal 0 -1 0
    outer loop
      vertex 2.89778 -4.5 6.77646
      vertex 3 -4.5 6
      vertex 7.5 -4.5 0
    endloop
  endfacet
  facet normal 0 -1 0
    outer loop
      vertex 7.5 -4.5 12
      vertex 1.5 -4.5 8.59808
      vertex 2.12132 -4.5 8.12132
    endloop
  endfacet
  facet normal 0 -1 0
    outer loop
      vertex 7.5 -4.5 12
      vertex 2.59808 -4.5 7.5
      vertex 7.5 -4.5 0
    endloop
  endfacet
  facet normal 0 -1 0
    outer loop
      vertex 7.5 -4.5 12
      vertex 2.12132 -4.5 8.12132
      vertex 2.59808 -4.5 7.5
    endloop
  endfacet
  facet normal 0 -1 0
    outer loop
      vertex 2.89778 -4.5 5.22354
      vertex 2.59808 -4.5 4.5
      vertex 7.5 -4.5 0
    endloop
  endfacet
  facet normal 0 -1 0
    outer loop
      vertex 0 -4.5 3
      vertex -7.5 -4.5 0
      vertex 0.776457 -4.5 3.10222
    endloop
  endfacet
  facet normal 0 -1 0
    outer loop
      vertex -0.776457 -4.5 3.10222
      vertex -7.5 -4.5 0
      vertex 0 -4.5 3
    endloop
  endfacet
  facet normal 0 -1 0
    outer loop
      vertex -1.5 -4.5 3.40192
      vertex -7.5 -4.5 0
      vertex -0.776457 -4.5 3.10222
    endloop
  endfacet
  facet normal 0 -1 0
    outer loop
      vertex -2.12132 -4.5 3.87868
      vertex -7.5 -4.5 0
      vertex -1.5 -4.5 3.40192
    endloop
  endfacet
  facet normal 0 -1 0
    outer loop
      vertex -2.59808 -4.5 4.5
      vertex -7.5 -4.5 0
      vertex -2.12132 -4.5 3.87868
    endloop
  endfacet
  facet normal 0 -1 0
    outer loop
      vertex -2.89778 -4.5 5.22354
      vertex -7.5 -4.5 0
      vertex -2.59808 -4.5 4.5
    endloop
  endfacet
  facet normal 0 -1 0
    outer loop
      vertex -2.59808 -4.5 7.5
      vertex -2.12132 -4.5 8.12132
      vertex -7.5 -4.5 12
    endloop
  endfacet
  facet normal 0 -1 0
    outer loop
      vertex 2.59808 -4.5 4.5
      vertex 2.12132 -4.5 3.87868
      vertex 7.5 -4.5 0
    endloop
  endfacet
  facet normal 0 0 -1
    outer loop
      vertex -7.5 -4.5 0
      vertex -7.5 4.5 0
      vertex 7.5 -4.5 0
    endloop
  endfacet
  facet normal 0 0 -1
    outer loop
      vertex 7.5 -4.5 0
      vertex -7.5 4.5 0
      vertex -1.25 4.5 0
    endloop
  endfacet
  facet normal 0 0 -1
    outer loop
      vertex 7.5 -4.5 0
      vertex -1.25 4.5 0
      vertex -1.25 6.5 0
    endloop
  endfacet
  facet normal 0 0 -1
    outer loop
      vertex 1.25 4.5 0
      vertex -1.25 6.5 0
      vertex 1.25 6.5 0
    endloop
  endfacet
  facet normal 0 0 -1
    outer loop
      vertex 7.5 -4.5 0
      vertex -1.25 6.5 0
      vertex 1.25 4.5 0
    endloop
  endfacet
  facet normal 0 0 -1
    outer loop
      vertex 7.5 4.5 0
      vertex 7.5 -4.5 0
      vertex 1.25 4.5 0
    endloop
  endfacet
  facet normal 0 1 0
    outer loop
      vertex -7.5 4.5 0
      vertex -7.5 4.5 12
      vertex -1.25 4.5 0
    endloop
  endfacet
  facet normal 0 1 0
    outer loop
      vertex -6 4.5 10
      vertex -7.5 4.5 12
      vertex -6 4.5 12
    endloop
  endfacet
  facet normal 0 1 0
    outer loop
      vertex -1.25 4.5 0
      vertex -7.5 4.5 12
      vertex -6 4.5 10
    endloop
  endfacet
  facet normal 0 1 0
    outer loop
      vertex -1.25 4.5 4.81965
      vertex -1.25 4.5 0
      vertex -1.49389 4.5 5.1375
    endloop
  endfacet
  facet normal 0 1 0
    outer loop
      vertex -1.25 4.5 0
      vertex -1.725 4.5 6
      vertex -1.66622 4.5 5.55354
    endloop
  endfacet
  facet normal 0 1 0
    outer loop
      vertex -1.25 4.5 0
      vertex -1.66622 4.5 5.55354
      vertex -1.49389 4.5 5.1375
    endloop
  endfacet
  facet normal 0 1 0
    outer loop
      vertex -1.25 4.5 10
      vertex -1.25 4.5 7.10639
      vertex -1.49389 4.5 6.8625
    endloop
  endfacet
  facet normal 0 1 0
    outer loop
      vertex -1.25 4.5 10
      vertex -1.49389 4.5 6.8625
      vertex -1.725 4.5 6
    endloop
  endfacet
  facet normal 0 1 0
    outer loop
      vertex -1.725 4.5 6
      vertex -1.25 4.5 0
      vertex -6 4.5 10
    endloop
  endfacet
  facet normal 0 1 0
    outer loop
      vertex -1.25 4.5 10
      vertex -1.725 4.5 6
      vertex -6 4.5 10
    endloop
  endfacet
  facet normal 0 0 1
    outer loop
      vertex -6 -3.5 12
      vertex -7.5 -4.5 12
      vertex 7.5 -4.5 12
    endloop
  endfacet
  facet normal 0 0 1
    outer loop
      vertex -6 -3.5 12
      vertex -6 4.5 12
      vertex -7.5 4.5 12
    endloop
  endfacet
  facet normal 0 0 1
    outer loop
      vertex 7.5 4.5 12
      vertex 6 4.5 12
      vertex 7.5 -4.5 12
    endloop
  endfacet
  facet normal 0 0 1
    outer loop
      vertex 6 4.5 12
      vertex 6 -3.5 12
      vertex 7.5 -4.5 12
    endloop
  endfacet
  facet normal 0 0 1
    outer loop
      vertex -7.5 4.5 12
      vertex -7.5 -4.5 12
      vertex -6 -3.5 12
    endloop
  endfacet
  facet normal 0 0 1
    outer loop
      vertex 6 -3.5 12
      vertex -6 -3.5 12
      vertex 7.5 -4.5 12
    endloop
  endfacet
  facet normal 1 0 0
    outer loop
      vertex 7.5 -4.5 12
      vertex 7.5 -4.5 0
      vertex 7.5 4.5 0
    endloop
  endfacet
  facet normal 1 0 0
    outer loop
      vertex 7.5 4.5 12
      vertex 7.5 -4.5 12
      vertex 7.5 4.5 0
    endloop
  endfacet
  facet normal 0.991445 2.89828e-17 0.130527
    outer loop
      vertex -2.89778 -4.5 5.22354
      vertex -2.89778 0.9 5.22354
      vertex -3 0.9 6
    endloop
  endfacet
  facet normal 0.991445 2.89828e-17 0.130527
    outer loop
      vertex -3 -4.5 6
      vertex -2.89778 -4.5 5.22354
      vertex -3 0.9 6
    endloop
  endfacet
  facet normal 0.92388 8.49727e-17 0.382683
    outer loop
      vertex -2.59808 -4.5 4.5
      vertex -2.59808 0.9 4.5
      vertex -2.89778 0.9 5.22354
    endloop
  endfacet
  facet normal 0.92388 8.49727e-17 0.382683
    outer loop
      vertex -2.89778 -4.5 5.22354
      vertex -2.59808 -4.5 4.5
      vertex -2.89778 0.9 5.22354
    endloop
  endfacet
  facet normal 0.793353 1.35172e-16 0.608762
    outer loop
      vertex -2.12132 -4.5 3.87868
      vertex -2.12132 0.9 3.87868
      vertex -2.59808 0.9 4.5
    endloop
  endfacet
  facet normal 0.793353 1.35172e-16 0.608762
    outer loop
      vertex -2.59808 -4.5 4.5
      vertex -2.12132 -4.5 3.87868
      vertex -2.59808 0.9 4.5
    endloop
  endfacet
  facet normal 0.608762 1.7616e-16 0.793353
    outer loop
      vertex -1.5 -4.5 3.40192
      vertex -1.5 0.9 3.40192
      vertex -2.12132 0.9 3.87868
    endloop
  endfacet
  facet normal 0.608762 1.7616e-16 0.793353
    outer loop
      vertex -2.12132 -4.5 3.87868
      vertex -1.5 -4.5 3.40192
      vertex -2.12132 0.9 3.87868
    endloop
  endfacet
  facet normal 0.382683 2.05142e-16 0.92388
    outer loop
      vertex -0.776457 -4.5 3.10222
      vertex -0.776457 0.9 3.10222
      vertex -1.5 0.9 3.40192
    endloop
  endfacet
  facet normal 0.382683 2.05142e-16 0.92388
    outer loop
      vertex -1.5 -4.5 3.40192
      vertex -0.776457 -4.5 3.10222
      vertex -1.5 0.9 3.40192
    endloop
  endfacet
  facet normal 0.130527 2.20145e-16 0.991445
    outer loop
      vertex 0 -4.5 3
      vertex 0 0.9 3
      vertex -0.776457 0.9 3.10222
    endloop
  endfacet
  facet normal 0.130527 2.20145e-16 0.991445
    outer loop
      vertex -0.776457 -4.5 3.10222
      vertex 0 -4.5 3
      vertex -0.776457 0.9 3.10222
    endloop
  endfacet
  facet normal -0.130527 2.20145e-16 0.991445
    outer loop
      vertex 0.776457 -4.5 3.10222
      vertex 0.776457 0.9 3.10222
      vertex 0 0.9 3
    endloop
  endfacet
  facet normal -0.130527 2.20145e-16 0.991445
    outer loop
      vertex 0 -4.5 3
      vertex 0.776457 -4.5 3.10222
      vertex 0 0.9 3
    endloop
  endfacet
  facet normal -0.382683 2.05142e-16 0.92388
    outer loop
      vertex 1.5 -4.5 3.40192
      vertex 1.5 0.9 3.40192
      vertex 0.776457 0.9 3.10222
    endloop
  endfacet
  facet normal -0.382683 2.05142e-16 0.92388
    outer loop
      vertex 0.776457 -4.5 3.10222
      vertex 1.5 -4.5 3.40192
      vertex 0.776457 0.9 3.10222
    endloop
  endfacet
  facet normal -0.608762 1.7616e-16 0.793353
    outer loop
      vertex 2.12132 -4.5 3.87868
      vertex 2.12132 0.9 3.87868
      vertex 1.5 0.9 3.40192
    endloop
  endfacet
  facet normal -0.608762 1.7616e-16 0.793353
    outer loop
      vertex 1.5 -4.5 3.40192
      vertex 2.12132 -4.5 3.87868
      vertex 1.5 0.9 3.40192
    endloop
  endfacet
  facet normal -0.793353 1.35172e-16 0.608762
    outer loop
      vertex 2.59808 0.9 4.5
      vertex 2.12132 0.9 3.87868
      vertex 2.59808 -4.5 4.5
    endloop
  endfacet
  facet normal -0.793353 1.35172e-16 0.608762
    outer loop
      vertex 2.59808 -4.5 4.5
      vertex 2.12132 0.9 3.87868
      vertex 2.12132 -4.5 3.87868
    endloop
  endfacet
  facet normal -0.92388 8.49727e-17 0.382683
    outer loop
      vertex 2.89778 0.9 5.22354
      vertex 2.59808 0.9 4.5
      vertex 2.89778 -4.5 5.22354
    endloop
  endfacet
  facet normal -0.92388 8.49727e-17 0.382683
    outer loop
      vertex 2.89778 -4.5 5.22354
      vertex 2.59808 0.9 4.5
      vertex 2.59808 -4.5 4.5
    endloop
  endfacet
  facet normal -0.991445 2.89828e-17 0.130527
    outer loop
      vertex 3 0.9 6
      vertex 2.89778 0.9 5.22354
      vertex 3 -4.5 6
    endloop
  endfacet
  facet normal -0.991445 2.89828e-17 0.130527
    outer loop
      vertex 3 -4.5 6
      vertex 2.89778 0.9 5.22354
      vertex 2.89778 -4.5 5.22354
    endloop
  endfacet
  facet normal -0.991445 -2.89828e-17 -0.130527
    outer loop
      vertex 3 0.9 6
      vertex 3 -4.5 6
      vertex 2.89778 0.9 6.77646
    endloop
  endfacet
  facet normal -0.991445 -2.89828e-17 -0.130527
    outer loop
      vertex 2.89778 0.9 6.77646
      vertex 3 -4.5 6
      vertex 2.89778 -4.5 6.77646
    endloop
  endfacet
  facet normal -0.92388 -8.49727e-17 -0.382683
    outer loop
      vertex 2.89778 0.9 6.77646
      vertex 2.89778 -4.5 6.77646
      vertex 2.59808 0.9 7.5
    endloop
  endfacet
  facet normal -0.92388 -8.49727e-17 -0.382683
    outer loop
      vertex 2.59808 0.9 7.5
      vertex 2.89778 -4.5 6.77646
      vertex 2.59808 -4.5 7.5
    endloop
  endfacet
  facet normal -0.793353 -1.35172e-16 -0.608762
    outer loop
      vertex 2.59808 0.9 7.5
      vertex 2.59808 -4.5 7.5
      vertex 2.12132 0.9 8.12132
    endloop
  endfacet
  facet normal -0.793353 -1.35172e-16 -0.608762
    outer loop
      vertex 2.12132 0.9 8.12132
      vertex 2.59808 -4.5 7.5
      vertex 2.12132 -4.5 8.12132
    endloop
  endfacet
  facet normal -0.608762 -1.7616e-16 -0.793353
    outer loop
      vertex 2.12132 0.9 8.12132
      vertex 2.12132 -4.5 8.12132
      vertex 1.5 0.9 8.59808
    endloop
  endfacet
  facet normal -0.608762 -1.7616e-16 -0.793353
    outer loop
      vertex 1.5 0.9 8.59808
      vertex 2.12132 -4.5 8.12132
      vertex 1.5 -4.5 8.59808
    endloop
  endfacet
  facet normal -0.382683 -2.05142e-16 -0.92388
    outer loop
      vertex 1.5 0.9 8.59808
      vertex 1.5 -4.5 8.59808
      vertex 0.776457 0.9 8.89778
    endloop
  endfacet
  facet normal -0.382683 -2.05142e-16 -0.92388
    outer loop
      vertex 0.776457 0.9 8.89778
      vertex 1.5 -4.5 8.59808
      vertex 0.776457 -4.5 8.89778
    endloop
  endfacet
  facet normal -0.130527 -2.20145e-16 -0.991445
    outer loop
      vertex 0.776457 0.9 8.89778
      vertex 0.776457 -4.5 8.89778
      vertex 0 0.9 9
    endloop
  endfacet
  facet normal -0.130527 -2.20145e-16 -0.991445
    outer loop
      vertex 0 0.9 9
      vertex 0.776457 -4.5 8.89778
      vertex 0 -4.5 9
    endloop
  endfacet
  facet normal 0.130527 -2.20145e-16 -0.991445
    outer loop
      vertex 0 0.9 9
      vertex 0 -4.5 9
      vertex -0.776457 0.9 8.89778
    endloop
  endfacet
  facet normal 0.130527 -2.20145e-16 -0.991445
    outer loop
      vertex -0.776457 0.9 8.89778
      vertex 0 -4.5 9
      vertex -0.776457 -4.5 8.89778
    endloop
  endfacet
  facet normal 0.382683 -2.05142e-16 -0.92388
    outer loop
      vertex -0.776457 0.9 8.89778
      vertex -0.776457 -4.5 8.89778
      vertex -1.5 0.9 8.59808
    endloop
  endfacet
  facet normal 0.382683 -2.05142e-16 -0.92388
    outer loop
      vertex -1.5 0.9 8.59808
      vertex -0.776457 -4.5 8.89778
      vertex -1.5 -4.5 8.59808
    endloop
  endfacet
  facet normal 0.608762 -1.7616e-16 -0.793353
    outer loop
      vertex -1.5 0.9 8.59808
      vertex -1.5 -4.5 8.59808
      vertex -2.12132 0.9 8.12132
    endloop
  endfacet
  facet normal 0.608762 -1.7616e-16 -0.793353
    outer loop
      vertex -2.12132 0.9 8.12132
      vertex -1.5 -4.5 8.59808
      vertex -2.12132 -4.5 8.12132
    endloop
  endfacet
  facet normal 0.793353 -1.35172e-16 -0.608762
    outer loop
      vertex -2.59808 0.9 7.5
      vertex -2.12132 0.9 8.12132
      vertex -2.12132 -4.5 8.12132
    endloop
  endfacet
  facet normal 0.793353 -1.35172e-16 -0.608762
    outer loop
      vertex -2.59808 -4.5 7.5
      vertex -2.59808 0.9 7.5
      vertex -2.12132 -4.5 8.12132
    endloop
  endfacet
  facet normal 0.92388 -8.49727e-17 -0.382683
    outer loop
      vertex -2.89778 0.9 6.77646
      vertex -2.59808 0.9 7.5
      vertex -2.59808 -4.5 7.5
    endloop
  endfacet
  facet normal 0.92388 -8.49727e-17 -0.382683
    outer loop
      vertex -2.89778 -4.5 6.77646
      vertex -2.89778 0.9 6.77646
      vertex -2.59808 -4.5 7.5
    endloop
  endfacet
  facet normal 0.991445 -2.89828e-17 -0.130527
    outer loop
      vertex -3 0.9 6
      vertex -2.89778 0.9 6.77646
      vertex -2.89778 -4.5 6.77646
    endloop
  endfacet
  facet normal 0.991445 -2.89828e-17 -0.130527
    outer loop
      vertex -3 -4.5 6
      vertex -3 0.9 6
      vertex -2.89778 -4.5 6.77646
    endloop
  endfacet
  facet normal 0 1 0
    outer loop
      vertex 1.25 4.5 0
      vertex 1.25 4.5 4.81965
      vertex 7.5 4.5 0
    endloop
  endfacet
  facet normal 0 1 0
    outer loop
      vertex 7.5 4.5 0
      vertex 1.25 4.5 4.81965
      vertex 1.49389 4.5 5.1375
    endloop
  endfacet
  facet normal 0 1 0
    outer loop
      vertex 1.49389 4.5 5.1375
      vertex 1.66622 4.5 5.55354
      vertex 7.5 4.5 0
    endloop
  endfacet
  facet normal 0 1 0
    outer loop
      vertex 1.66622 4.5 5.55354
      vertex 1.725 4.5 6
      vertex 7.5 4.5 0
    endloop
  endfacet
  facet normal 0 1 0
    outer loop
      vertex 1.725 4.5 6
      vertex 1.49389 4.5 6.8625
      vertex 7.5 4.5 0
    endloop
  endfacet
  facet normal 0 1 0
    outer loop
      vertex 1.49389 4.5 6.8625
      vertex 1.25 4.5 7.10639
      vertex 1.25 4.5 10
    endloop
  endfacet
  facet normal 0 1 0
    outer loop
      vertex 1.49389 4.5 6.8625
      vertex 1.25 4.5 10
      vertex 7.5 4.5 0
    endloop
  endfacet
  facet normal 0 1 0
    outer loop
      vertex 7.5 4.5 0
      vertex 1.25 4.5 10
      vertex 6 4.5 10
    endloop
  endfacet
  facet normal 0 1 0
    outer loop
      vertex 7.5 4.5 0
      vertex 6 4.5 10
      vertex 6 4.5 12
    endloop
  endfacet
  facet normal 0 1 0
    outer loop
      vertex 7.5 4.5 0
      vertex 6 4.5 12
      vertex 7.5 4.5 12
    endloop
  endfacet
  facet normal 1 0 0
    outer loop
      vertex 1.25 4.5 4.81965
      vertex 1.25 4.5 0
      vertex 1.25 6.5 0
    endloop
  endfacet
  facet normal 1 0 0
    outer loop
      vertex 1.25 4.53243 4.75
      vertex 1.25 4.5 4.81965
      vertex 1.25 6.5 0
    endloop
  endfacet
  facet normal 1 0 0
    outer loop
      vertex 1.25 6.5 1.83623
      vertex 1.25 6.1329 2.35575
      vertex 1.25 6.5 0
    endloop
  endfacet
  facet normal 1 0 0
    outer loop
      vertex 1.25 6.1329 2.35575
      vertex 1.25 5.08768 3.83494
      vertex 1.25 6.5 0
    endloop
  endfacet
  facet normal 1 0 0
    outer loop
      vertex 1.25 5.08768 3.83494
      vertex 1.25 4.55305 4.71602
      vertex 1.25 6.5 0
    endloop
  endfacet
  facet normal 1 0 0
    outer loop
      vertex 1.25 4.55305 4.71602
      vertex 1.25 4.53243 4.75
      vertex 1.25 6.5 0
    endloop
  endfacet
  facet normal 0 1 0
    outer loop
      vertex -1.25 6.5 0
      vertex -1.25 6.5 1.83623
      vertex 1.25 6.5 0
    endloop
  endfacet
  facet normal 0 1 0
    outer loop
      vertex 1.25 6.5 0
      vertex -1.25 6.5 1.83623
      vertex -1.1291 6.5 1.78615
    endloop
  endfacet
  facet normal 0 1 0
    outer loop
      vertex 1.25 6.5 0
      vertex -1.1291 6.5 1.78615
      vertex -0.905867 6.5 1.75676
    endloop
  endfacet
  facet normal 0 1 0
    outer loop
      vertex -0.905867 6.5 1.75676
      vertex 0 6.5 1.6375
      vertex 1.25 6.5 0
    endloop
  endfacet
  facet normal 0 1 0
    outer loop
      vertex 0 6.5 1.6375
      vertex 0.223231 6.5 1.66689
      vertex 1.25 6.5 0
    endloop
  endfacet
  facet normal 0 1 0
    outer loop
      vertex 1.25 6.5 0
      vertex 0.223231 6.5 1.66689
      vertex 1.1291 6.5 1.78615
    endloop
  endfacet
  facet normal 0 1 0
    outer loop
      vertex 1.1291 6.5 1.78615
      vertex 1.25 6.5 1.83623
      vertex 1.25 6.5 0
    endloop
  endfacet
  facet normal -1 0 0
    outer loop
      vertex -1.25 4.5 0
      vertex -1.25 4.5 4.81965
      vertex -1.25 6.5 0
    endloop
  endfacet
  facet normal -1 0 0
    outer loop
      vertex -1.25 6.5 0
      vertex -1.25 4.5 4.81965
      vertex -1.25 4.52498 4.766
    endloop
  endfacet
  facet normal -1 0 0
    outer loop
      vertex -1.25 6.5 0
      vertex -1.25 4.52498 4.766
      vertex -1.25 4.53243 4.75
    endloop
  endfacet
  facet normal -1 0 0
    outer loop
      vertex -1.25 6.5 0
      vertex -1.25 4.53243 4.75
      vertex -1.25 4.87923 4.17847
    endloop
  endfacet
  facet normal -1 0 0
    outer loop
      vertex -1.25 4.87923 4.17847
      vertex -1.25 5.08768 3.83494
      vertex -1.25 6.5 0
    endloop
  endfacet
  facet normal -1 0 0
    outer loop
      vertex -1.25 5.08768 3.83494
      vertex -1.25 5.5526 3.17698
      vertex -1.25 6.5 0
    endloop
  endfacet
  facet normal -1 0 0
    outer loop
      vertex -1.25 6.5 0
      vertex -1.25 5.5526 3.17698
      vertex -1.25 6.5 1.83623
    endloop
  endfacet
  facet normal 0.481974 0.794307 0.369833
    outer loop
      vertex -1.25 4.5 4.81965
      vertex -1.49389 4.5 5.1375
      vertex -1.21976 4.5 4.78024
    endloop
  endfacet
  facet normal 0.481974 0.794307 0.369833
    outer loop
      vertex -1.25 4.5 4.81965
      vertex -1.21976 4.5 4.78024
      vertex -1.25 4.52498 4.766
    endloop
  endfacet
  facet normal 0 1 -2.22045e-16
    outer loop
      vertex -1.66622 4.5 5.55354
      vertex -1.725 4.5 6
      vertex -1.49389 4.5 5.1375
    endloop
  endfacet
  facet normal 0.965926 5.74693e-17 0.258819
    outer loop
      vertex -1.49389 0.9 5.1375
      vertex -1.49389 4.5 5.1375
      vertex -1.725 4.5 6
    endloop
  endfacet
  facet normal 0.965926 5.74693e-17 0.258819
    outer loop
      vertex -1.725 0.9 6
      vertex -1.49389 0.9 5.1375
      vertex -1.725 4.5 6
    endloop
  endfacet
  facet normal 0.965926 -5.74693e-17 -0.258819
    outer loop
      vertex -1.725 4.5 6
      vertex -1.49389 4.5 6.8625
      vertex -1.49389 0.9 6.8625
    endloop
  endfacet
  facet normal 0.965926 -5.74693e-17 -0.258819
    outer loop
      vertex -1.725 0.9 6
      vertex -1.725 4.5 6
      vertex -1.49389 0.9 6.8625
    endloop
  endfacet
  facet normal 0.707107 -1.57009e-16 -0.707107
    outer loop
      vertex -0.8625 0.9 7.49389
      vertex -1.25 4.5 7.10639
      vertex -0.8625 4.5 7.49389
    endloop
  endfacet
  facet normal 0.707107 -1.57009e-16 -0.707107
    outer loop
      vertex -1.49389 4.5 6.8625
      vertex -1.25 4.5 7.10639
      vertex -0.8625 0.9 7.49389
    endloop
  endfacet
  facet normal 0.707107 -1.57009e-16 -0.707107
    outer loop
      vertex -1.49389 0.9 6.8625
      vertex -1.49389 4.5 6.8625
      vertex -0.8625 0.9 7.49389
    endloop
  endfacet
  facet normal -1 0 0
    outer loop
      vertex -1.25 4.5 7.10639
      vertex -1.25 4.5 10
      vertex -1.25 4.5 12
    endloop
  endfacet
  facet normal -1 0 0
    outer loop
      vertex -1.25 4.55305 7.28398
      vertex -1.25 4.5 12
      vertex -1.25 6.5 12
    endloop
  endfacet
  facet normal -1 0 0
    outer loop
      vertex -1.25 6.1329 9.64425
      vertex -1.25 6.5 12
      vertex -1.25 6.5 10.1638
    endloop
  endfacet
  facet normal -1 0 0
    outer loop
      vertex -1.25 5.08768 8.16506
      vertex -1.25 6.5 12
      vertex -1.25 6.1329 9.64425
    endloop
  endfacet
  facet normal -1 0 0
    outer loop
      vertex -1.25 4.53243 7.25
      vertex -1.25 4.5 12
      vertex -1.25 4.55305 7.28398
    endloop
  endfacet
  facet normal -1 0 0
    outer loop
      vertex -1.25 4.5 7.18035
      vertex -1.25 4.5 12
      vertex -1.25 4.53243 7.25
    endloop
  endfacet
  facet normal -1 0 0
    outer loop
      vertex -1.25 4.5 7.10639
      vertex -1.25 4.5 12
      vertex -1.25 4.5 7.18035
    endloop
  endfacet
  facet normal -1 0 0
    outer loop
      vertex -1.25 4.55305 7.28398
      vertex -1.25 6.5 12
      vertex -1.25 5.08768 8.16506
    endloop
  endfacet
  facet normal 0 0 1
    outer loop
      vertex 6 -3.5 10
      vertex 6 4.5 10
      vertex 1.25 4.5 10
    endloop
  endfacet
  facet normal 0 0 1
    outer loop
      vertex -6 4.5 10
      vertex 6 -3.5 10
      vertex -1.25 4.5 10
    endloop
  endfacet
  facet normal 0 0 1
    outer loop
      vertex -1.25 4.5 10
      vertex 6 -3.5 10
      vertex 1.25 4.5 10
    endloop
  endfacet
  facet normal 0 0 1
    outer loop
      vertex -6 -3.5 10
      vertex 6 -3.5 10
      vertex -6 4.5 10
    endloop
  endfacet
  facet normal 0 -1 0
    outer loop
      vertex 1.25 4.5 10
      vertex 1.25 4.5 12
      vertex -1.25 4.5 12
    endloop
  endfacet
  facet normal 0 -1 0
    outer loop
      vertex -1.25 4.5 10
      vertex 1.25 4.5 10
      vertex -1.25 4.5 12
    endloop
  endfacet
  facet normal 1 0 0
    outer loop
      vertex -6 4.5 10
      vertex -6 4.5 12
      vertex -6 -3.5 12
    endloop
  endfacet
  facet normal 1 0 0
    outer loop
      vertex -6 -3.5 10
      vertex -6 4.5 10
      vertex -6 -3.5 12
    endloop
  endfacet
  facet normal 0 1 0
    outer loop
      vertex 6 -3.5 12
      vertex 6 -3.5 10
      vertex -6 -3.5 12
    endloop
  endfacet
  facet normal 0 1 0
    outer loop
      vertex -6 -3.5 12
      vertex 6 -3.5 10
      vertex -6 -3.5 10
    endloop
  endfacet
  facet normal -1 0 0
    outer loop
      vertex 6 4.5 12
      vertex 6 4.5 10
      vertex 6 -3.5 12
    endloop
  endfacet
  facet normal -1 0 0
    outer loop
      vertex 6 -3.5 12
      vertex 6 4.5 10
      vertex 6 -3.5 10
    endloop
  endfacet
  facet normal 0 -1 2.22045e-16
    outer loop
      vertex -2.89778 0.9 5.22354
      vertex -2.59808 0.9 4.5
      vertex -2.12132 0.9 3.87868
    endloop
  endfacet
  facet normal 0 -1 2.22045e-16
    outer loop
      vertex -0.776457 0.9 3.10222
      vertex -2.89778 0.9 5.22354
      vertex -1.5 0.9 3.40192
    endloop
  endfacet
  facet normal 0 -1 2.22045e-16
    outer loop
      vertex -1.5 0.9 3.40192
      vertex -2.89778 0.9 5.22354
      vertex -2.12132 0.9 3.87868
    endloop
  endfacet
  facet normal 0 -1 2.22045e-16
    outer loop
      vertex 0 0.9 3
      vertex -2.89778 0.9 5.22354
      vertex -0.776457 0.9 3.10222
    endloop
  endfacet
  facet normal 0 -1 2.22045e-16
    outer loop
      vertex 0.776457 0.9 3.10222
      vertex -2.89778 0.9 5.22354
      vertex 0 0.9 3
    endloop
  endfacet
  facet normal 0 -1 2.22045e-16
    outer loop
      vertex 1.5 0.9 3.40192
      vertex -2.89778 0.9 5.22354
      vertex 0.776457 0.9 3.10222
    endloop
  endfacet
  facet normal 0 -1 2.22045e-16
    outer loop
      vertex -0.8625 0.9 4.50611
      vertex -2.89778 0.9 5.22354
      vertex 1.5 0.9 3.40192
    endloop
  endfacet
  facet normal 0 -1 2.22045e-16
    outer loop
      vertex 0.8625 0.9 4.50611
      vertex 0 0.9 4.275
      vertex 2.12132 0.9 3.87868
    endloop
  endfacet
  facet normal 0 -1 2.22045e-16
    outer loop
      vertex -1.725 0.9 6
      vertex -1.49389 0.9 6.8625
      vertex -2.89778 0.9 5.22354
    endloop
  endfacet
  facet normal 0 -1 2.22045e-16
    outer loop
      vertex 0.8625 0.9 7.49389
      vertex 2.59808 0.9 7.5
      vertex 2.12132 0.9 8.12132
    endloop
  endfacet
  facet normal 0 -1 2.22045e-16
    outer loop
      vertex 0.8625 0.9 7.49389
      vertex 1.49389 0.9 6.8625
      vertex 2.59808 0.9 7.5
    endloop
  endfacet
  facet normal 0 -1 2.22045e-16
    outer loop
      vertex -0.776457 0.9 8.89778
      vertex -2.89778 0.9 5.22354
      vertex 0 0.9 9
    endloop
  endfacet
  facet normal 0 -1 2.22045e-16
    outer loop
      vertex -1.5 0.9 8.59808
      vertex -2.89778 0.9 5.22354
      vertex -0.776457 0.9 8.89778
    endloop
  endfacet
  facet normal 0 -1 2.22045e-16
    outer loop
      vertex -2.12132 0.9 8.12132
      vertex -2.89778 0.9 5.22354
      vertex -1.5 0.9 8.59808
    endloop
  endfacet
  facet normal 0 -1 2.22045e-16
    outer loop
      vertex -2.59808 0.9 7.5
      vertex -2.89778 0.9 5.22354
      vertex -2.12132 0.9 8.12132
    endloop
  endfacet
  facet normal 0 -1 2.22045e-16
    outer loop
      vertex -2.89778 0.9 6.77646
      vertex -2.89778 0.9 5.22354
      vertex -2.59808 0.9 7.5
    endloop
  endfacet
  facet normal 0 -1 2.22045e-16
    outer loop
      vertex -3 0.9 6
      vertex -2.89778 0.9 5.22354
      vertex -2.89778 0.9 6.77646
    endloop
  endfacet
  facet normal 0 -1 2.22045e-16
    outer loop
      vertex 1.49389 0.9 5.1375
      vertex 0.8625 0.9 4.50611
      vertex 2.59808 0.9 4.5
    endloop
  endfacet
  facet normal 0 -1 2.22045e-16
    outer loop
      vertex 0 0.9 7.725
      vertex 0.8625 0.9 7.49389
      vertex 1.5 0.9 8.59808
    endloop
  endfacet
  facet normal 0 -1 2.22045e-16
    outer loop
      vertex 0 0.9 9
      vertex -2.89778 0.9 5.22354
      vertex -1.49389 0.9 6.8625
    endloop
  endfacet
  facet normal 0 -1 2.22045e-16
    outer loop
      vertex 0 0.9 9
      vertex -0.8625 0.9 7.49389
      vertex 0.776457 0.9 8.89778
    endloop
  endfacet
  facet normal 0 -1 2.22045e-16
    outer loop
      vertex 0 0.9 9
      vertex -1.49389 0.9 6.8625
      vertex -0.8625 0.9 7.49389
    endloop
  endfacet
  facet normal 0 -1 2.22045e-16
    outer loop
      vertex 0.776457 0.9 8.89778
      vertex 0 0.9 7.725
      vertex 1.5 0.9 8.59808
    endloop
  endfacet
  facet normal 0 -1 2.22045e-16
    outer loop
      vertex -0.8625 0.9 7.49389
      vertex 0 0.9 7.725
      vertex 0.776457 0.9 8.89778
    endloop
  endfacet
  facet normal 0 -1 2.22045e-16
    outer loop
      vertex 1.5 0.9 8.59808
      vertex 0.8625 0.9 7.49389
      vertex 2.12132 0.9 8.12132
    endloop
  endfacet
  facet normal 0 -1 2.22045e-16
    outer loop
      vertex 2.59808 0.9 7.5
      vertex 1.49389 0.9 6.8625
      vertex 2.89778 0.9 6.77646
    endloop
  endfacet
  facet normal 0 -1 2.22045e-16
    outer loop
      vertex 2.89778 0.9 6.77646
      vertex 1.725 0.9 6
      vertex 3 0.9 6
    endloop
  endfacet
  facet normal 0 -1 2.22045e-16
    outer loop
      vertex 2.89778 0.9 5.22354
      vertex 1.49389 0.9 5.1375
      vertex 2.59808 0.9 4.5
    endloop
  endfacet
  facet normal 0 -1 2.22045e-16
    outer loop
      vertex 2.59808 0.9 4.5
      vertex 0.8625 0.9 4.50611
      vertex 2.12132 0.9 3.87868
    endloop
  endfacet
  facet normal 0 -1 2.22045e-16
    outer loop
      vertex 2.12132 0.9 3.87868
      vertex 0 0.9 4.275
      vertex 1.5 0.9 3.40192
    endloop
  endfacet
  facet normal 0 -1 2.22045e-16
    outer loop
      vertex 0 0.9 4.275
      vertex -0.8625 0.9 4.50611
      vertex 1.5 0.9 3.40192
    endloop
  endfacet
  facet normal 0 -1 2.22045e-16
    outer loop
      vertex -0.8625 0.9 4.50611
      vertex -1.49389 0.9 5.1375
      vertex -2.89778 0.9 5.22354
    endloop
  endfacet
  facet normal 0 -1 2.22045e-16
    outer loop
      vertex 1.49389 0.9 6.8625
      vertex 1.725 0.9 6
      vertex 2.89778 0.9 6.77646
    endloop
  endfacet
  facet normal 0 -1 2.22045e-16
    outer loop
      vertex 1.725 0.9 6
      vertex 1.49389 0.9 5.1375
      vertex 2.89778 0.9 5.22354
    endloop
  endfacet
  facet normal 0 -1 2.22045e-16
    outer loop
      vertex 1.725 0.9 6
      vertex 2.89778 0.9 5.22354
      vertex 3 0.9 6
    endloop
  endfacet
  facet normal 0 -1 2.22045e-16
    outer loop
      vertex -1.49389 0.9 5.1375
      vertex -1.725 0.9 6
      vertex -2.89778 0.9 5.22354
    endloop
  endfacet
  facet normal 1 0 0
    outer loop
      vertex 1.25 4.52498 7.234
      vertex 1.25 4.5 10
      vertex 1.25 4.5 7.18035
    endloop
  endfacet
  facet normal 1 0 0
    outer loop
      vertex 1.25 4.5 7.18035
      vertex 1.25 4.5 10
      vertex 1.25 4.5 7.10639
    endloop
  endfacet
  facet normal 1 0 0
    outer loop
      vertex 1.25 4.53243 7.25
      vertex 1.25 4.5 10
      vertex 1.25 4.52498 7.234
    endloop
  endfacet
  facet normal 1 0 0
    outer loop
      vertex 1.25 4.87923 7.82153
      vertex 1.25 4.5 10
      vertex 1.25 4.53243 7.25
    endloop
  endfacet
  facet normal 1 0 0
    outer loop
      vertex 1.25 5.08768 8.16506
      vertex 1.25 4.5 10
      vertex 1.25 4.87923 7.82153
    endloop
  endfacet
  facet normal 1 0 0
    outer loop
      vertex 1.25 5.5526 8.82302
      vertex 1.25 4.5 10
      vertex 1.25 5.08768 8.16506
    endloop
  endfacet
  facet normal 1 0 0
    outer loop
      vertex 1.25 6.5 10.1638
      vertex 1.25 4.5 10
      vertex 1.25 5.5526 8.82302
    endloop
  endfacet
  facet normal 1 0 0
    outer loop
      vertex 1.25 6.5 12
      vertex 1.25 4.5 10
      vertex 1.25 6.5 10.1638
    endloop
  endfacet
  facet normal 1 0 0
    outer loop
      vertex 1.25 4.5 12
      vertex 1.25 4.5 10
      vertex 1.25 6.5 12
    endloop
  endfacet
  facet normal -0.707107 -1.57009e-16 -0.707107
    outer loop
      vertex 1.49389 0.9 6.8625
      vertex 1.25 4.5 7.10639
      vertex 1.49389 4.5 6.8625
    endloop
  endfacet
  facet normal -0.707107 -1.57009e-16 -0.707107
    outer loop
      vertex 0.8625 4.5 7.49389
      vertex 1.25 4.5 7.10639
      vertex 1.49389 0.9 6.8625
    endloop
  endfacet
  facet normal -0.707107 -1.57009e-16 -0.707107
    outer loop
      vertex 0.8625 4.5 7.49389
      vertex 1.49389 0.9 6.8625
      vertex 0.8625 0.9 7.49389
    endloop
  endfacet
  facet normal -0.965926 -5.74693e-17 -0.258819
    outer loop
      vertex 1.725 4.5 6
      vertex 1.725 0.9 6
      vertex 1.49389 4.5 6.8625
    endloop
  endfacet
  facet normal -0.965926 -5.74693e-17 -0.258819
    outer loop
      vertex 1.49389 4.5 6.8625
      vertex 1.725 0.9 6
      vertex 1.49389 0.9 6.8625
    endloop
  endfacet
  facet normal -0.965926 5.74693e-17 0.258819
    outer loop
      vertex 1.725 4.5 6
      vertex 1.49389 4.5 5.1375
      vertex 1.725 0.9 6
    endloop
  endfacet
  facet normal -0.965926 5.74693e-17 0.258819
    outer loop
      vertex 1.725 0.9 6
      vertex 1.49389 4.5 5.1375
      vertex 1.49389 0.9 5.1375
    endloop
  endfacet
  facet normal 0 1 -2.22045e-16
    outer loop
      vertex 1.66622 4.5 5.55354
      vertex 1.49389 4.5 5.1375
      vertex 1.725 4.5 6
    endloop
  endfacet
  facet normal -0.481974 0.794308 0.369833
    outer loop
      vertex 1.21976 4.5 4.78024
      vertex 1.49389 4.5 5.1375
      vertex 1.25 4.5 4.81965
    endloop
  endfacet
  facet normal -0.481974 0.794308 0.369833
    outer loop
      vertex 1.21976 4.5 4.78024
      vertex 1.25 4.5 4.81965
      vertex 1.25 4.53243 4.75
    endloop
  endfacet
  facet normal -0.369832 0.794308 0.481975
    outer loop
      vertex 1.25 4.55305 4.71602
      vertex 1.21976 4.5 4.78024
      vertex 1.25 4.53243 4.75
    endloop
  endfacet
  facet normal -0.369833 0.794307 0.481974
    outer loop
      vertex 0.8625 4.5 4.50611
      vertex 1.21976 4.5 4.78024
      vertex 1.25 5.08768 3.83494
    endloop
  endfacet
  facet normal -0.369833 0.794307 0.481974
    outer loop
      vertex 1.25 5.08768 3.83494
      vertex 1.21976 4.5 4.78024
      vertex 1.25 4.55305 4.71602
    endloop
  endfacet
  facet normal -0.232486 0.794308 0.561272
    outer loop
      vertex 1.25 6.1329 2.35575
      vertex 0.8625 4.5 4.50611
      vertex 1.25 5.08768 3.83494
    endloop
  endfacet
  facet normal -0.232486 0.794308 0.561272
    outer loop
      vertex 0.446463 4.5 4.33378
      vertex 0.8625 4.5 4.50611
      vertex 1.1291 6.5 1.78615
    endloop
  endfacet
  facet normal -0.232486 0.794308 0.561272
    outer loop
      vertex 1.1291 6.5 1.78615
      vertex 0.8625 4.5 4.50611
      vertex 1.25 6.1329 2.35575
    endloop
  endfacet
  facet normal -0.232486 0.794308 0.561272
    outer loop
      vertex 1.1291 6.5 1.78615
      vertex 1.25 6.1329 2.35575
      vertex 1.25 6.5 1.83623
    endloop
  endfacet
  facet normal -0.0792967 0.794308 0.602319
    outer loop
      vertex 1.1291 6.5 1.78615
      vertex 0.223231 6.5 1.66689
      vertex 0.446463 4.5 4.33378
    endloop
  endfacet
  facet normal -0.0792968 0.794308 0.602319
    outer loop
      vertex 0 4.5 4.275
      vertex 0.446463 4.5 4.33378
      vertex 0 6.5 1.6375
    endloop
  endfacet
  facet normal -0.0792968 0.794308 0.602319
    outer loop
      vertex 0 6.5 1.6375
      vertex 0.446463 4.5 4.33378
      vertex 0.223231 6.5 1.66689
    endloop
  endfacet
  facet normal 0.0792967 0.794308 0.602319
    outer loop
      vertex 0 6.5 1.6375
      vertex -0.905867 6.5 1.75676
      vertex 0 4.5 4.275
    endloop
  endfacet
  facet normal 0.0792968 0.794308 0.602318
    outer loop
      vertex -1.1291 6.5 1.78615
      vertex -0.446463 4.5 4.33378
      vertex -0.905867 6.5 1.75676
    endloop
  endfacet
  facet normal 0.0792968 0.794308 0.602318
    outer loop
      vertex -0.905867 6.5 1.75676
      vertex -0.446463 4.5 4.33378
      vertex 0 4.5 4.275
    endloop
  endfacet
  facet normal 0.232486 0.794308 0.561271
    outer loop
      vertex -1.25 5.5526 3.17698
      vertex -0.446463 4.5 4.33378
      vertex -1.25 6.5 1.83623
    endloop
  endfacet
  facet normal 0.232486 0.794308 0.561271
    outer loop
      vertex -1.25 6.5 1.83623
      vertex -0.446463 4.5 4.33378
      vertex -1.1291 6.5 1.78615
    endloop
  endfacet
  facet normal 0.232486 0.794308 0.561272
    outer loop
      vertex -1.25 5.08768 3.83494
      vertex -0.8625 4.5 4.50611
      vertex -1.25 5.5526 3.17698
    endloop
  endfacet
  facet normal 0.232486 0.794308 0.561272
    outer loop
      vertex -1.25 5.5526 3.17698
      vertex -0.8625 4.5 4.50611
      vertex -0.446463 4.5 4.33378
    endloop
  endfacet
  facet normal 0.369832 0.794308 0.481975
    outer loop
      vertex -1.25 5.08768 3.83494
      vertex -1.25 4.87923 4.17847
      vertex -0.8625 4.5 4.50611
    endloop
  endfacet
  facet normal 0.369833 0.794308 0.481974
    outer loop
      vertex -1.25 4.53243 4.75
      vertex -1.21976 4.5 4.78024
      vertex -1.25 4.87923 4.17847
    endloop
  endfacet
  facet normal 0.369833 0.794308 0.481974
    outer loop
      vertex -1.25 4.87923 4.17847
      vertex -1.21976 4.5 4.78024
      vertex -0.8625 4.5 4.50611
    endloop
  endfacet
  facet normal 0.481975 0.794308 0.369832
    outer loop
      vertex -1.25 4.53243 4.75
      vertex -1.25 4.52498 4.766
      vertex -1.21976 4.5 4.78024
    endloop
  endfacet
  facet normal 0 1 -2.22045e-16
    outer loop
      vertex -1.21976 4.5 4.78024
      vertex -1.49389 4.5 5.1375
      vertex -0.8625 4.5 4.50611
    endloop
  endfacet
  facet normal 0.707107 1.57009e-16 0.707107
    outer loop
      vertex -0.8625 0.9 4.50611
      vertex -0.8625 4.5 4.50611
      vertex -1.49389 4.5 5.1375
    endloop
  endfacet
  facet normal 0.707107 1.57009e-16 0.707107
    outer loop
      vertex -1.49389 0.9 5.1375
      vertex -0.8625 0.9 4.50611
      vertex -1.49389 4.5 5.1375
    endloop
  endfacet
  facet normal 0.258819 -2.14479e-16 -0.965926
    outer loop
      vertex 0 4.5 7.725
      vertex 0 0.9 7.725
      vertex -0.8625 4.5 7.49389
    endloop
  endfacet
  facet normal 0.258819 -2.14479e-16 -0.965926
    outer loop
      vertex -0.8625 4.5 7.49389
      vertex 0 0.9 7.725
      vertex -0.8625 0.9 7.49389
    endloop
  endfacet
  facet normal 0 1 -2.22045e-16
    outer loop
      vertex -1.25 4.5 7.10639
      vertex -1.25 4.5 7.18035
      vertex -0.8625 4.5 7.49389
    endloop
  endfacet
  facet normal 0 1 -2.22045e-16
    outer loop
      vertex -0.8625 4.5 7.49389
      vertex -1.25 4.5 7.18035
      vertex -1.21976 4.5 7.21976
    endloop
  endfacet
  facet normal 0 1 -2.22045e-16
    outer loop
      vertex 0 4.5 7.725
      vertex -0.8625 4.5 7.49389
      vertex -0.446463 4.5 7.66622
    endloop
  endfacet
  facet normal 0.232486 0.794308 -0.561272
    outer loop
      vertex -1.25 6.1329 9.64425
      vertex -1.25 6.5 10.1638
      vertex -0.8625 4.5 7.49389
    endloop
  endfacet
  facet normal 0.232486 0.794308 -0.561272
    outer loop
      vertex -0.8625 4.5 7.49389
      vertex -1.25 6.5 10.1638
      vertex -1.1291 6.5 10.2139
    endloop
  endfacet
  facet normal 0.232486 0.794308 -0.561272
    outer loop
      vertex -0.8625 4.5 7.49389
      vertex -1.1291 6.5 10.2139
      vertex -0.446463 4.5 7.66622
    endloop
  endfacet
  facet normal 0.232486 0.794308 -0.561272
    outer loop
      vertex -0.8625 4.5 7.49389
      vertex -1.25 5.08768 8.16506
      vertex -1.25 6.1329 9.64425
    endloop
  endfacet
  facet normal 0.369833 0.794307 -0.481974
    outer loop
      vertex -1.25 4.55305 7.28398
      vertex -1.25 5.08768 8.16506
      vertex -1.21976 4.5 7.21976
    endloop
  endfacet
  facet normal 0.369833 0.794307 -0.481974
    outer loop
      vertex -1.21976 4.5 7.21976
      vertex -1.25 5.08768 8.16506
      vertex -0.8625 4.5 7.49389
    endloop
  endfacet
  facet normal 0.481974 0.794308 -0.369833
    outer loop
      vertex -1.21976 4.5 7.21976
      vertex -1.25 4.5 7.18035
      vertex -1.25 4.53243 7.25
    endloop
  endfacet
  facet normal 0.369832 0.794308 -0.481975
    outer loop
      vertex -1.21976 4.5 7.21976
      vertex -1.25 4.53243 7.25
      vertex -1.25 4.55305 7.28398
    endloop
  endfacet
  facet normal 0 1 0
    outer loop
      vertex -1.25 6.5 10.1638
      vertex -1.25 6.5 12
      vertex -1.1291 6.5 10.2139
    endloop
  endfacet
  facet normal 0 1 0
    outer loop
      vertex -1.1291 6.5 10.2139
      vertex -1.25 6.5 12
      vertex 1.25 6.5 12
    endloop
  endfacet
  facet normal 0 1 0
    outer loop
      vertex 1.1291 6.5 10.2139
      vertex 1.25 6.5 12
      vertex 1.25 6.5 10.1638
    endloop
  endfacet
  facet normal 0 1 0
    outer loop
      vertex 0.905866 6.5 10.2432
      vertex 1.25 6.5 12
      vertex 1.1291 6.5 10.2139
    endloop
  endfacet
  facet normal 0 1 0
    outer loop
      vertex 0 6.5 10.3625
      vertex 1.25 6.5 12
      vertex 0.905866 6.5 10.2432
    endloop
  endfacet
  facet normal 0 1 0
    outer loop
      vertex -1.1291 6.5 10.2139
      vertex 1.25 6.5 12
      vertex 0 6.5 10.3625
    endloop
  endfacet
  facet normal 0 1 0
    outer loop
      vertex -1.1291 6.5 10.2139
      vertex 0 6.5 10.3625
      vertex -0.223232 6.5 10.3331
    endloop
  endfacet
  facet normal 0 0 1
    outer loop
      vertex -1.25 6.5 12
      vertex -1.25 4.5 12
      vertex 1.25 4.5 12
    endloop
  endfacet
  facet normal 0 0 1
    outer loop
      vertex 1.25 6.5 12
      vertex -1.25 6.5 12
      vertex 1.25 4.5 12
    endloop
  endfacet
  facet normal 0.258819 2.14479e-16 0.965926
    outer loop
      vertex 0 0.9 4.275
      vertex 0 4.5 4.275
      vertex -0.8625 4.5 4.50611
    endloop
  endfacet
  facet normal 0.258819 2.14479e-16 0.965926
    outer loop
      vertex -0.8625 0.9 4.50611
      vertex 0 0.9 4.275
      vertex -0.8625 4.5 4.50611
    endloop
  endfacet
  facet normal -0.258819 2.14479e-16 0.965926
    outer loop
      vertex 0.8625 0.9 4.50611
      vertex 0.8625 4.5 4.50611
      vertex 0 4.5 4.275
    endloop
  endfacet
  facet normal -0.258819 2.14479e-16 0.965926
    outer loop
      vertex 0 0.9 4.275
      vertex 0.8625 0.9 4.50611
      vertex 0 4.5 4.275
    endloop
  endfacet
  facet normal -0.707107 1.57009e-16 0.707107
    outer loop
      vertex 1.49389 4.5 5.1375
      vertex 0.8625 4.5 4.50611
      vertex 1.49389 0.9 5.1375
    endloop
  endfacet
  facet normal -0.707107 1.57009e-16 0.707107
    outer loop
      vertex 1.49389 0.9 5.1375
      vertex 0.8625 4.5 4.50611
      vertex 0.8625 0.9 4.50611
    endloop
  endfacet
  facet normal -0.258819 -2.14479e-16 -0.965926
    outer loop
      vertex 0.8625 4.5 7.49389
      vertex 0.8625 0.9 7.49389
      vertex 0 4.5 7.725
    endloop
  endfacet
  facet normal -0.258819 -2.14479e-16 -0.965926
    outer loop
      vertex 0 4.5 7.725
      vertex 0.8625 0.9 7.49389
      vertex 0 0.9 7.725
    endloop
  endfacet
  facet normal -0.232486 0.794308 -0.561271
    outer loop
      vertex 0.446463 4.5 7.66622
      vertex 1.1291 6.5 10.2139
      vertex 1.25 5.5526 8.82302
    endloop
  endfacet
  facet normal -0.232486 0.794308 -0.561271
    outer loop
      vertex 1.25 5.5526 8.82302
      vertex 1.1291 6.5 10.2139
      vertex 1.25 6.5 10.1638
    endloop
  endfacet
  facet normal -0.232486 0.794308 -0.561272
    outer loop
      vertex 0.446463 4.5 7.66622
      vertex 1.25 5.5526 8.82302
      vertex 0.8625 4.5 7.49389
    endloop
  endfacet
  facet normal -0.232486 0.794308 -0.561272
    outer loop
      vertex 0.8625 4.5 7.49389
      vertex 1.25 5.5526 8.82302
      vertex 1.25 5.08768 8.16506
    endloop
  endfacet
  facet normal -0.369832 0.794308 -0.481975
    outer loop
      vertex 1.25 4.87923 7.82153
      vertex 0.8625 4.5 7.49389
      vertex 1.25 5.08768 8.16506
    endloop
  endfacet
  facet normal -0.369833 0.794308 -0.481974
    outer loop
      vertex 0.8625 4.5 7.49389
      vertex 1.25 4.87923 7.82153
      vertex 1.21976 4.5 7.21976
    endloop
  endfacet
  facet normal -0.369833 0.794308 -0.481974
    outer loop
      vertex 1.21976 4.5 7.21976
      vertex 1.25 4.87923 7.82153
      vertex 1.25 4.53243 7.25
    endloop
  endfacet
  facet normal -0.481975 0.794308 -0.369832
    outer loop
      vertex 1.25 4.52498 7.234
      vertex 1.21976 4.5 7.21976
      vertex 1.25 4.53243 7.25
    endloop
  endfacet
  facet normal -0.481974 0.794307 -0.369833
    outer loop
      vertex 1.25 4.5 7.18035
      vertex 1.21976 4.5 7.21976
      vertex 1.25 4.52498 7.234
    endloop
  endfacet
  facet normal 0 1 -2.22045e-16
    outer loop
      vertex 0.8625 4.5 7.49389
      vertex 1.21976 4.5 7.21976
      vertex 1.25 4.5 7.10639
    endloop
  endfacet
  facet normal 0 1 -2.22045e-16
    outer loop
      vertex 1.25 4.5 7.10639
      vertex 1.21976 4.5 7.21976
      vertex 1.25 4.5 7.18035
    endloop
  endfacet
  facet normal 0 1 -2.22045e-16
    outer loop
      vertex 0.8625 4.5 7.49389
      vertex 0 4.5 7.725
      vertex 0.446463 4.5 7.66622
    endloop
  endfacet
  facet normal 0 1 -2.22045e-16
    outer loop
      vertex 1.21976 4.5 4.78024
      vertex 0.8625 4.5 4.50611
      vertex 1.49389 4.5 5.1375
    endloop
  endfacet
  facet normal 0 1 -2.22045e-16
    outer loop
      vertex 0.446463 4.5 4.33378
      vertex 0 4.5 4.275
      vertex 0.8625 4.5 4.50611
    endloop
  endfacet
  facet normal 0 1 -2.22045e-16
    outer loop
      vertex -0.446463 4.5 4.33378
      vertex -0.8625 4.5 4.50611
      vertex 0 4.5 4.275
    endloop
  endfacet
  facet normal -0.0792968 0.794308 -0.602318
    outer loop
      vertex 0 4.5 7.725
      vertex 0.905866 6.5 10.2432
      vertex 0.446463 4.5 7.66622
    endloop
  endfacet
  facet normal -0.0792968 0.794308 -0.602318
    outer loop
      vertex 0.446463 4.5 7.66622
      vertex 0.905866 6.5 10.2432
      vertex 1.1291 6.5 10.2139
    endloop
  endfacet
  facet normal -0.0792967 0.794308 -0.602319
    outer loop
      vertex 0.905866 6.5 10.2432
      vertex 0 4.5 7.725
      vertex 0 6.5 10.3625
    endloop
  endfacet
  facet normal 0.0792968 0.794308 -0.602319
    outer loop
      vertex -0.446463 4.5 7.66622
      vertex -0.223232 6.5 10.3331
      vertex 0 4.5 7.725
    endloop
  endfacet
  facet normal 0.0792968 0.794308 -0.602319
    outer loop
      vertex 0 4.5 7.725
      vertex -0.223232 6.5 10.3331
      vertex 0 6.5 10.3625
    endloop
  endfacet
  facet normal 0.0792967 0.794308 -0.602319
    outer loop
      vertex -0.446463 4.5 7.66622
      vertex -1.1291 6.5 10.2139
      vertex -0.223232 6.5 10.3331
    endloop
  endfacet
endsolid OpenSCAD_Model
